<?xml version="1.0" encoding="UTF-8" standalone="no"?>
<!-- Created with Inkscape (http://www.inkscape.org/) -->

<svg
   xmlns:dc="http://purl.org/dc/elements/1.1/"
   xmlns:cc="http://creativecommons.org/ns#"
   xmlns:rdf="http://www.w3.org/1999/02/22-rdf-syntax-ns#"
   xmlns:svg="http://www.w3.org/2000/svg"
   xmlns="http://www.w3.org/2000/svg"
   xmlns:sodipodi="http://sodipodi.sourceforge.net/DTD/sodipodi-0.dtd"
   xmlns:inkscape="http://www.inkscape.org/namespaces/inkscape"
   width="860"
   height="625"
   viewBox="0 0 227.54166 165.36459"
   version="1.1"
   id="svg8"
   inkscape:version="0.92.2 (5c3e80d, 2017-08-06)"
   sodipodi:docname="typical-scenario-2.svg">
  <defs
     id="defs2">
    <marker
       inkscape:isstock="true"
       style="overflow:visible"
       id="marker2167"
       refX="0"
       refY="0"
       orient="auto"
       inkscape:stockid="Arrow1Lend">
      <path
         transform="matrix(-0.8,0,0,-0.8,-10,0)"
         style="fill:#000000;fill-opacity:1;fill-rule:evenodd;stroke:#000000;stroke-width:1.00000003pt;stroke-opacity:1"
         d="M 0,0 5,-5 -12.5,0 5,5 Z"
         id="path2165"
         inkscape:connector-curvature="0" />
    </marker>
    <marker
       inkscape:stockid="Arrow1Lend"
       orient="auto"
       refY="0"
       refX="0"
       id="marker1923"
       style="overflow:visible"
       inkscape:isstock="true">
      <path
         id="path1921"
         d="M 0,0 5,-5 -12.5,0 5,5 Z"
         style="fill:#000000;fill-opacity:1;fill-rule:evenodd;stroke:#000000;stroke-width:1.00000003pt;stroke-opacity:1"
         transform="matrix(-0.8,0,0,-0.8,-10,0)"
         inkscape:connector-curvature="0" />
    </marker>
    <marker
       inkscape:stockid="Arrow1Lend"
       orient="auto"
       refY="0"
       refX="0"
       id="marker1581"
       style="overflow:visible"
       inkscape:isstock="true">
      <path
         id="path1579"
         d="M 0,0 5,-5 -12.5,0 5,5 Z"
         style="fill:#000000;fill-opacity:1;fill-rule:evenodd;stroke:#000000;stroke-width:1.00000003pt;stroke-opacity:1"
         transform="matrix(-0.8,0,0,-0.8,-10,0)"
         inkscape:connector-curvature="0" />
    </marker>
    <linearGradient
       x1="-5167.1"
       y1="697.55"
       gradientTransform="matrix(-0.21591,0.044142,-0.044142,-0.21591,-974.83,437.49)"
       x2="-4570.1"
       gradientUnits="userSpaceOnUse"
       y2="1395.6"
       id="i">
      <stop
         id="stop2496"
         offset="0"
         style="stop-color:#F69923" />
      <stop
         id="stop2498"
         offset=".3123"
         style="stop-color:#F79A23" />
      <stop
         id="stop2500"
         offset=".8383"
         style="stop-color:#E97826" />
    </linearGradient>
    <linearGradient
       x1="-9585.3"
       y1="620.5"
       gradientTransform="matrix(-0.21591,0.044142,-0.044142,-0.21591,-974.83,437.49)"
       x2="-5326.2"
       gradientUnits="userSpaceOnUse"
       y2="620.5"
       id="h">
      <stop
         id="stop2503"
         offset=".3233"
         style="stop-color:#9E2064" />
      <stop
         id="stop2505"
         offset=".6302"
         style="stop-color:#C92037" />
      <stop
         id="stop2507"
         offset=".7514"
         style="stop-color:#CD2335" />
      <stop
         id="stop2509"
         offset="1"
         style="stop-color:#E97826" />
    </linearGradient>
    <linearGradient
       x1="-9071.2"
       y1="1047.7"
       gradientTransform="matrix(-0.21591,0.044142,-0.044142,-0.21591,-974.83,437.49)"
       x2="-6533.2"
       gradientUnits="userSpaceOnUse"
       y2="1047.7"
       id="g">
      <stop
         id="stop2512"
         offset="0"
         style="stop-color:#282662" />
      <stop
         id="stop2514"
         offset=".095484"
         style="stop-color:#662E8D" />
      <stop
         id="stop2516"
         offset=".7882"
         style="stop-color:#9F2064" />
      <stop
         id="stop2518"
         offset=".9487"
         style="stop-color:#CD2032" />
    </linearGradient>
    <linearGradient
       x1="-9346.1"
       y1="580.82"
       gradientTransform="matrix(-0.21591,0.044142,-0.044142,-0.21591,-974.83,437.49)"
       x2="-5087"
       gradientUnits="userSpaceOnUse"
       y2="580.82"
       id="f">
      <stop
         id="stop2521"
         offset=".3233"
         style="stop-color:#9E2064" />
      <stop
         id="stop2523"
         offset=".6302"
         style="stop-color:#C92037" />
      <stop
         id="stop2525"
         offset=".7514"
         style="stop-color:#CD2335" />
      <stop
         id="stop2527"
         offset="1"
         style="stop-color:#E97826" />
    </linearGradient>
    <linearGradient
       x1="-9035.5"
       y1="638.44"
       gradientTransform="matrix(-0.21591,0.044142,-0.044142,-0.21591,-974.83,437.49)"
       x2="-6797.2"
       gradientUnits="userSpaceOnUse"
       y2="638.44"
       id="e">
      <stop
         id="stop2530"
         offset="0"
         style="stop-color:#282662" />
      <stop
         id="stop2532"
         offset=".095484"
         style="stop-color:#662E8D" />
      <stop
         id="stop2534"
         offset=".7882"
         style="stop-color:#9F2064" />
      <stop
         id="stop2536"
         offset=".9487"
         style="stop-color:#CD2032" />
    </linearGradient>
    <linearGradient
       x1="-9346.1"
       y1="1021.6"
       gradientTransform="matrix(-0.21591,0.044142,-0.044142,-0.21591,-974.83,437.49)"
       x2="-5087"
       gradientUnits="userSpaceOnUse"
       y2="1021.6"
       id="d">
      <stop
         id="stop2539"
         offset=".3233"
         style="stop-color:#9E2064" />
      <stop
         id="stop2541"
         offset=".6302"
         style="stop-color:#C92037" />
      <stop
         id="stop2543"
         offset=".7514"
         style="stop-color:#CD2335" />
      <stop
         id="stop2545"
         offset="1"
         style="stop-color:#E97826" />
    </linearGradient>
    <linearGradient
       x1="-9610.3"
       y1="999.73"
       gradientTransform="matrix(-0.21591,0.044142,-0.044142,-0.21591,-974.83,437.49)"
       x2="-5351.2"
       gradientUnits="userSpaceOnUse"
       y2="999.73"
       id="c">
      <stop
         id="stop2548"
         offset=".3233"
         style="stop-color:#9E2064" />
      <stop
         id="stop2550"
         offset=".6302"
         style="stop-color:#C92037" />
      <stop
         id="stop2552"
         offset=".7514"
         style="stop-color:#CD2335" />
      <stop
         id="stop2554"
         offset="1"
         style="stop-color:#E97826" />
    </linearGradient>
    <linearGradient
       x1="-9346.1"
       y1="1152.7"
       gradientTransform="matrix(-0.21591,0.044142,-0.044142,-0.21591,-974.83,437.49)"
       x2="-5087"
       gradientUnits="userSpaceOnUse"
       y2="1152.7"
       id="b">
      <stop
         id="stop2557"
         offset=".3233"
         style="stop-color:#9E2064" />
      <stop
         id="stop2559"
         offset=".6302"
         style="stop-color:#C92037" />
      <stop
         id="stop2561"
         offset=".7514"
         style="stop-color:#CD2335" />
      <stop
         id="stop2563"
         offset="1"
         style="stop-color:#E97826" />
    </linearGradient>
    <linearGradient
       x1="-9346.1"
       y1="1137.7"
       gradientTransform="matrix(-0.21591,0.044142,-0.044142,-0.21591,-974.83,437.49)"
       x2="-5087"
       gradientUnits="userSpaceOnUse"
       y2="1137.7"
       id="a">
      <stop
         id="stop2566"
         offset=".3233"
         style="stop-color:#9E2064" />
      <stop
         id="stop2568"
         offset=".6302"
         style="stop-color:#C92037" />
      <stop
         id="stop2570"
         offset=".7514"
         style="stop-color:#CD2335" />
      <stop
         id="stop2572"
         offset="1"
         style="stop-color:#E97826" />
    </linearGradient>
    <linearGradient
       x1="-6953.4"
       y1="1134.7"
       gradientTransform="matrix(-0.21591,0.044142,-0.044142,-0.21591,-974.83,437.49)"
       x2="-6012"
       gradientUnits="userSpaceOnUse"
       y2="1134.7"
       id="j">
      <stop
         id="stop2575"
         offset=".3233"
         style="stop-color:#9E2064" />
      <stop
         id="stop2577"
         offset=".6302"
         style="stop-color:#C92037" />
      <stop
         id="stop2579"
         offset=".7514"
         style="stop-color:#CD2335" />
      <stop
         id="stop2581"
         offset="1"
         style="stop-color:#E97826" />
    </linearGradient>
    <clipPath
       id="clipPath3444">
      <path
         d="M11.52 162C11.52 81.677 135.307 16.56 288 16.56S564.48 81.678 564.48 162 440.693 307.44 288 307.44 11.52 242.32 11.52 162"
         id="path3446" />
    </clipPath>
    <radialGradient
       spreadMethod="pad"
       gradientUnits="userSpaceOnUse"
       gradientTransform="matrix(363.06,0,0,-363.06,177.52,256.31)"
       fy="0"
       fx="0"
       r="1"
       cy="0"
       cx="0"
       id="radialGradient3452">
      <stop
         stop-color="#aeb2d5"
         offset="0"
         id="stop3454" />
      <stop
         stop-color="#aeb2d5"
         offset="0.3"
         id="stop3456" />
      <stop
         stop-color="#484c89"
         offset="0.75"
         id="stop3458" />
      <stop
         stop-color="#484c89"
         offset="1"
         id="stop3460" />
    </radialGradient>
    <clipPath
       id="clipPath3468">
      <path
         d="M0 324h576V0H0v324z"
         id="path3470" />
    </clipPath>
    <clipPath
       id="clipPath3480">
      <path
         d="M0 324h576V0H0v324z"
         id="path3482" />
    </clipPath>
  </defs>
  <sodipodi:namedview
     id="base"
     pagecolor="#ffffff"
     bordercolor="#666666"
     borderopacity="1.0"
     inkscape:pageopacity="0.0"
     inkscape:pageshadow="2"
     inkscape:zoom="1.688"
     inkscape:cx="430"
     inkscape:cy="312.5"
     inkscape:document-units="mm"
     inkscape:current-layer="layer1"
     showgrid="false"
     units="px"
     inkscape:measure-start="0,0"
     inkscape:measure-end="0,0"
     inkscape:window-width="2560"
     inkscape:window-height="1315"
     inkscape:window-x="-13"
     inkscape:window-y="-13"
     inkscape:window-maximized="1"
     fit-margin-top="0"
     fit-margin-left="0"
     fit-margin-right="0"
     fit-margin-bottom="0" />
  <metadata
     id="metadata5">
    <rdf:RDF>
      <cc:Work
         rdf:about="">
        <dc:format>image/svg+xml</dc:format>
        <dc:type
           rdf:resource="http://purl.org/dc/dcmitype/StillImage" />
        <dc:title />
      </cc:Work>
    </rdf:RDF>
  </metadata>
  <g
     inkscape:label="Calque 1"
     inkscape:groupmode="layer"
     id="layer1"
     transform="translate(-19.900276,-124.00446)">
    <g
       style="enable-background:new"
       id="g2719"
       transform="matrix(0.03880283,0,0,0.03880283,144.44775,177.1768)">
      <g
         id="g2636"
         transform="translate(-3.9433,180.23)">
        <path
           id="path2586"
           d="m 656.71,-7.0909 c 20.267,-9.5939 39.714,-20.144 58.137,-31.855 0.64586,-0.42398 1.3003,-0.79943 1.9461,-1.2234 -7.5146,19.097 -3.8382,52.585 -3.7537,52.44 11.85,-34.711 26.515,-65.255 48.744,-84.672 8.4826,7.5928 14.923,21.83 20.214,39.882 2.6186,-24.849 -1.858,-38.732 -4.0514,-43.799 10.917,12.948 30.734,20.176 52.045,26.46 -23.946,-14.536 -39.792,-28.878 -46.004,-42.955 68.312,-21.018 142.29,-46.157 219.96,-74.026 -6.0925,-4.5911 -12.639,-5.1694 -19.442,-3.1706 -14.023,5.1017 -106.22,38.312 -231.64,76.244 -3.5629,1.0778 -7.1567,2.1511 -10.768,3.2375 -1.0067,0.30738 -2.0264,0.59708 -3.0153,0.89135 -13.174,3.9515 -26.666,7.9189 -40.462,11.92 -3.1433,0.90384 -6.2865,1.8077 -9.4475,2.7247 -0.0663,0.02188 -0.13246,0.04334 -0.18106,0.052 l -34.514,68.935 c 0.7115,-0.33546 1.4939,-0.72358 2.2408,-1.0853 z"
           style="fill:url(#e)"
           inkscape:connector-curvature="0" />
        <path
           id="path2588"
           d="m 23.148,66.817 c 19.071,7.1961 39.608,9.0845 59.733,11.274 11.854,1.1234 23.738,1.9142 35.63,2.4926 8.1692,-17.104 16.338,-34.207 24.508,-51.311 -31.491,0.85648 -63.087,0.17618 -94.393,-3.5401 30.943,3.103 62.137,1.8494 93.129,0.17007 -22.37,-26.669 -46.909,-51.428 -71.93,-75.588 -23.519,11.839 -46.291,28.35 -58.634,52.244 -6.3001,14.546 -9.9508,31.534 -4.821,46.981 2.7562,7.894 9.065,14.16 16.773,17.277 z"
           style="fill:url(#i)"
           inkscape:connector-curvature="0" />
        <path
           id="path2590"
           d="m 280.24,-67.689 c -0.15352,-0.13308 -0.28936,-0.27929 -0.4429,-0.41235 l 2.6202,2.831 c 0.23288,0.12909 0.43954,0.22281 0.65472,0.36504 -0.94684,-0.94406 -1.8983,-1.8573 -2.832,-2.7836 z"
           style="fill:none"
           inkscape:connector-curvature="0" />
        <path
           id="path2592"
           d="m 368.72,-99.465 c 1.6889,1.4638 3.3155,3.0287 4.9198,4.6376 -1.6043,-1.6088 -3.2487,-3.1606 -4.9198,-4.6376 z"
           style="fill:none"
           inkscape:connector-curvature="0" />
        <path
           id="path2594"
           d="m 640.89,-71.354 c -0.77256,0.21613 -1.5451,0.43223 -2.3045,0.66606 -15.919,4.505 -31.444,8.8006 -46.643,12.908 -17.052,4.6045 -33.627,8.9648 -49.773,13.089 -17.016,4.3579 -33.536,8.4584 -49.579,12.315 -16.829,4.0548 -33.127,7.826 -48.887,11.362 -12.825,2.8692 -25.296,5.586 -37.426,8.1328 -4.0333,0.85047 -8.0489,1.6878 -12.029,2.4989 -7.881,1.6182 -15.643,3.1754 -23.223,4.6806 -7.0114,1.385 -13.886,2.6958 -20.659,3.9587 -2.2547,0.43715 -4.4872,0.83034 -6.7242,1.2544 -0.3574,0.072954 -0.72796,0.12822 -1.0854,0.20118 l 2.2258,2.4101 -2.5583,5.1341 c 0.55154,-0.10716 1.0985,-0.18347 1.6632,-0.27291 10.236,-1.7727 20.516,-3.6333 30.84,-5.5819 5.9654,-1.1307 11.949,-2.2746 17.936,-3.4492 16.6,-3.2538 33.24,-6.675 49.89,-10.268 16.826,-3.614 33.632,-7.4045 50.376,-11.314 16.449,-3.8277 32.823,-7.7924 49.096,-11.819 16.242,-4.0316 32.358,-8.1608 48.306,-12.331 16.654,-4.3643 33.08,-8.7783 49.245,-13.247 3.6463,-1.0025 7.2925,-2.0049 10.926,-3.0251 13.032,-3.6261 25.843,-7.2535 38.464,-10.878 l 4.0558,-8.1098 -2.4975,-2.7025 c -0.37966,0.11693 -0.7594,0.23382 -1.1214,0.3376 -16.542,4.885 -32.709,9.5737 -48.514,14.048 z"
           style="fill:none"
           inkscape:connector-curvature="0" />
        <path
           id="path2596"
           d="m 374.86,-93.622 c -0.012,-0.01769 -0.0309,-0.0044 -0.0441,-0.02219 0,0 0.012,0.01769 0.0441,0.02219 z"
           style="fill:none"
           inkscape:connector-curvature="0" />
        <path
           id="path2598"
           d="m 415.36,-112.67 c 2.517,2.3588 5.0819,4.8192 7.717,7.3373 0.012,0.0177 0.0441,0.0222 0.057,0.04 -1.2887,-1.2942 -2.5643,-2.5706 -3.8622,-3.8031 -1.2979,-1.2325 -2.5872,-2.4165 -3.9119,-3.5742 z"
           style="fill:#be202e"
           inkscape:connector-curvature="0" />
        <path
           id="path2600"
           d="m 415.36,-112.67 c 2.517,2.3588 5.0819,4.8192 7.717,7.3373 0.012,0.0177 0.0441,0.0222 0.057,0.04 -1.2887,-1.2942 -2.5643,-2.5706 -3.8622,-3.8031 -1.2979,-1.2325 -2.5872,-2.4165 -3.9119,-3.5742 z"
           style="opacity:0.35;fill:#be202e"
           inkscape:connector-curvature="0" />
        <path
           id="path2602"
           d="m 374.77,-93.666 c 0,0 0.012,0.01768 0.0309,0.0046 0.012,0.01769 0.0309,0.0044 0.0441,0.02219 -0.39436,-0.42092 -0.81102,-0.79786 -1.1923,-1.2011 -1.6175,-1.6266 -3.2618,-3.1783 -4.9198,-4.6376 1.9685,1.915 3.9986,3.8391 6.0373,5.8118 z"
           style="fill:#be202e"
           inkscape:connector-curvature="0" />
        <path
           id="path2604"
           d="m 374.77,-93.666 c 0,0 0.012,0.01768 0.0309,0.0046 0.012,0.01769 0.0309,0.0044 0.0441,0.02219 -0.39436,-0.42092 -0.81102,-0.79786 -1.1923,-1.2011 -1.6175,-1.6266 -3.2618,-3.1783 -4.9198,-4.6376 1.9685,1.915 3.9986,3.8391 6.0373,5.8118 z"
           style="opacity:0.35;fill:#be202e"
           inkscape:connector-curvature="0" />
        <path
           id="path2606"
           d="m 294.05,14.992 c -16.961,2.5069 -33.723,4.7285 -50.218,6.643 -17.122,1.9948 -33.955,3.6385 -50.416,4.8964 -0.9569,0.07847 -1.9446,0.15235 -2.9192,0.24395 -16.218,1.2152 -32.064,2.0446 -47.489,2.4796 l -24.508,51.311 c 3.1595,0.15406 6.3543,0.2819 9.6108,0.41887 12.251,0.46429 25.27,0.74328 38.902,0.81409 15.365,0.07595 31.56,-0.1344 48.36,-0.60148 15.522,-0.45209 31.601,-1.1524 48.051,-2.1282 14.003,-0.83512 28.316,-1.8448 42.838,-3.0914 0.5424,-0.0455 1.068,-0.07818 1.6104,-0.12365 13.32,-22.17 22.89,-45.722 34.335,-68.583 -16.183,2.7801 -32.241,5.3583 -48.157,7.7211 z"
           style="fill:url(#h)"
           inkscape:connector-curvature="0" />
        <path
           id="path2608"
           d="m 639.56,-61.012 c -16.179,4.4506 -32.604,8.8647 -49.245,13.247 -15.935,4.1875 -32.046,8.2859 -48.306,12.331 -16.26,4.0447 -32.63,7.9786 -49.096,11.819 -16.744,3.9098 -33.563,7.6825 -50.376,11.314 -16.632,3.5798 -33.29,7.0141 -49.89,10.268 -5.9877,1.1747 -11.971,2.3185 -17.936,3.4492 -10.325,1.9485 -20.605,3.8091 -30.84,5.5819 -0.55156,0.10715 -1.0985,0.18346 -1.6632,0.2729 l -34.33,68.583 c 1.0848,-0.091 2.1565,-0.19968 3.2413,-0.29065 15.39,-1.3696 31.015,-2.9407 46.779,-4.8063 15.922,-1.8736 31.965,-4.0286 48.062,-6.4433 13.582,-2.0319 27.162,-4.2534 40.724,-6.6821 2.7532,-0.50491 5.4578,-1.0013 8.1802,-1.5108 16.983,-3.1812 33.094,-6.6493 48.365,-10.29 17.296,-4.1271 33.51,-8.4938 48.609,-12.995 9.938,-2.9512 19.414,-5.9711 28.431,-8.9803 7.6399,-2.6465 15.232,-5.3947 22.71,-8.2228 17.654,-6.6419 34.84,-13.842 51.5,-21.64 11.64,-22.613 23.669,-45.588 34.514,-68.935 -12.622,3.624 -25.468,7.2775 -38.5,10.904 -3.6155,1.007 -7.2794,2.0226 -10.926,3.0251 z"
           style="fill:url(#f)"
           inkscape:connector-curvature="0" />
        <path
           id="path2610"
           d="m 343.66,-0.50096 c 2.2193,-0.41089 4.4564,-0.83491 6.7242,-1.2543 6.7596,-1.2806 13.634,-2.5914 20.659,-3.9587 7.5938,-1.4876 15.325,-3.0493 23.223,-4.6806 3.9802,-0.81109 7.965,-1.653 12.029,-2.4989 12.131,-2.5468 24.602,-5.2637 37.426,-8.1328 15.759,-3.5362 32.058,-7.3074 48.887,-11.362 16.043,-3.8564 32.564,-7.9569 49.579,-12.315 16.146,-4.1247 32.739,-8.4981 49.773,-13.089 15.198,-4.1078 30.724,-8.4034 46.643,-12.908 0.77254,-0.21613 1.5451,-0.43223 2.3045,-0.66606 15.804,-4.4748 31.971,-9.1635 48.483,-14.053 0.3797,-0.1169 0.7594,-0.23382 1.1214,-0.33761 l -19.143,-20.676 c 0.2395,0.5082 0.5278,1.0079 0.7674,1.5161 -23.296,-24.428 -69.92,-45.278 -111.88,-49.997 -19.338,-2.1783 -39.994,-1.8427 -62.413,0.92504 -16.69,2.0589 -34.353,5.4699 -53.191,10.219 -16.464,4.1405 -33.814,9.2679 -52.184,15.425 7.8381,3.7633 15.478,9.0727 22.931,15.646 1.2939,1.1531 2.614,2.3417 3.9119,3.5742 1.2979,1.2325 2.5912,2.4958 3.8622,3.8031 -0.012,-0.0177 -0.0441,-0.0222 -0.0569,-0.04 -28.247,-17.932 -58.622,-19.938 -89.973,-14.526 9.3924,3.2694 23.242,9.6268 35.603,20.379 1.6889,1.4639 3.3155,3.0287 4.9198,4.6376 0.41208,0.40779 0.81102,0.79786 1.1923,1.2011 -0.012,-0.01769 -0.0309,-0.0045 -0.0441,-0.02217 0,0 -0.012,-0.01769 -0.0309,-0.0045 -10.105,-6.0061 -19.623,-10.334 -29.164,-13.137 -2.0374,-0.60186 -4.084,-1.1421 -6.1444,-1.5898 -3.1256,-0.70044 -6.2609,-1.229 -9.4323,-1.6212 -2.0262,-0.25361 -4.0614,-0.44555 -6.1236,-0.56271 -4.8248,-0.29107 -9.7616,-0.2522 -14.877,0.1383 -1.5609,0.1148 -3.1265,0.26044 -4.7274,0.43231 -2.2279,0.36236 -4.3941,0.73388 -6.5295,1.11 -9.6447,1.7187 -18.003,3.5811 -25.18,5.4456 -3.5886,0.93227 -6.8597,1.8486 -9.8489,2.7754 -1.1876,0.35928 -2.3445,0.72314 -3.4528,1.0785 -3.3117,1.0836 -6.2044,2.1035 -8.6957,3.0727 -3.7281,1.4472 -6.5694,2.7582 -8.5675,3.8006 1.3027,0.35098 2.6974,0.8259 4.1661,1.4378 10.15,4.2169 23.891,14.166 33.591,23.215 l -17.583,-18.98 17.583,18.98 c 0.15354,0.13308 0.28938,0.2793 0.44292,0.41237 0.95142,0.91323 1.8983,1.8573 2.8628,2.7882 -0.23288,-0.1291 -0.43954,-0.17283 -0.65472,-0.31504 l 60.164,64.89 c 0.33972,-0.059824 0.67944,-0.11965 1.05,-0.17492 z"
           style="fill:url(#d)"
           inkscape:connector-curvature="0" />
        <path
           id="path2612"
           d="m 141.76,25.871 c 14.308,-0.86871 30.359,-2.1245 48.242,-3.9432 0.92606,-0.08306 1.8876,-0.19234 2.8313,-0.2885 15.471,-1.594 32.288,-3.5552 50.488,-6.02 15.721,-2.1083 32.439,-4.5725 50.245,-7.4582 15.511,-2.5017 31.888,-5.3162 49.043,-8.4876 l -59.49,-64.569 c -24.736,-13.567 -40.821,-16.794 -59.841,-16.547 -5.1755,0.16099 -10.523,0.42238 -15.982,0.79335 -16.711,1.142 -34.469,3.2787 -51.604,6.1064 -16.54,2.7429 -32.435,6.1328 -46.23,9.9134 -8.7714,2.4155 -16.684,4.99 -23.332,7.642 -5.8619,2.3434 -11.266,4.7863 -16.287,7.3018 25.101,24.05 54.589,54.423 71.931,75.557 z"
           style="fill:url(#c)"
           inkscape:connector-curvature="0" />
        <path
           id="path2614"
           d="m 419.27,-109.1 c 1.2979,1.2325 2.5912,2.4958 3.8622,3.8031 -1.271,-1.3073 -2.5643,-2.5706 -3.8622,-3.8031 z"
           style="fill:#be202e"
           inkscape:connector-curvature="0" />
        <path
           id="path2616"
           d="m 419.27,-109.1 c 1.2979,1.2325 2.5912,2.4958 3.8622,3.8031 -1.271,-1.3073 -2.5643,-2.5706 -3.8622,-3.8031 z"
           style="opacity:0.35;fill:#be202e"
           inkscape:connector-curvature="0" />
        <path
           id="path2618"
           d="m 419.27,-109.1 c 1.2979,1.2325 2.5912,2.4958 3.8622,3.8031 -1.271,-1.3073 -2.5643,-2.5706 -3.8622,-3.8031 z"
           style="fill:url(#b)"
           inkscape:connector-curvature="0" />
        <path
           id="path2620"
           d="m 374.86,-93.622 c -0.39438,-0.42091 -0.81102,-0.79787 -1.1923,-1.2011 0.38126,0.4032 0.7802,0.79328 1.1923,1.2011 z"
           style="fill:#be202e"
           inkscape:connector-curvature="0" />
        <path
           id="path2622"
           d="m 374.86,-93.622 c -0.39438,-0.42091 -0.81102,-0.79787 -1.1923,-1.2011 0.38126,0.4032 0.7802,0.79328 1.1923,1.2011 z"
           style="opacity:0.35;fill:#be202e"
           inkscape:connector-curvature="0" />
        <path
           id="path2624"
           d="m 374.86,-93.622 c -0.39438,-0.42091 -0.81102,-0.79787 -1.1923,-1.2011 0.38126,0.4032 0.7802,0.79328 1.1923,1.2011 z"
           style="fill:url(#a)"
           inkscape:connector-curvature="0" />
        <path
           id="path2626"
           d="m 374.81,-93.662 c 0,0 -0.012,-0.01769 -0.0309,-0.0045 0,0 0.012,0.01769 0.0309,0.0045 z"
           style="fill:#be202e"
           inkscape:connector-curvature="0" />
        <path
           id="path2628"
           d="m 374.81,-93.662 c 0,0 -0.012,-0.01769 -0.0309,-0.0045 0,0 0.012,0.01769 0.0309,0.0045 z"
           style="opacity:0.35;fill:#be202e"
           inkscape:connector-curvature="0" />
        <path
           id="path2630"
           d="m 374.81,-93.662 c 0,0 -0.012,-0.01769 -0.0309,-0.0045 0,0 0.012,0.01769 0.0309,0.0045 z"
           style="fill:url(#j)"
           inkscape:connector-curvature="0" />
        <path
           id="path2632"
           d="m 963.76,60.139 10e-4,2.5785 6.0385,-0.0033 0.009,17.057 2.7988,-0.0014 -0.009,-17.057 6.0825,-0.003 -0.002,-2.5785 -14.92,0.0078 z m 34.886,-0.01798 -6.7365,13.711 -6.7948,-13.704 -3.3718,0.0016 0.009,19.636 2.5784,-0.0013 -0.009,-15.581 6.6845,13.506 1.7851,-9.13e-4 6.6706,-13.513 0.01,15.581 2.5784,-0.0013 -0.01,-19.636 -3.3938,0.0019 z"
           style="fill:#6d6e71"
           inkscape:connector-curvature="0" />
        <path
           id="path2634"
           d="m 697.74,-87.882 c 12.856,-3.8255 25.903,-7.7645 39.192,-11.856 0.1987,-0.06501 0.3797,-0.1169 0.5784,-0.18193 1.8809,-0.57144 3.7485,-1.1606 5.6293,-1.732 8.9497,-2.7671 16.955,-5.3279 35.178,-11.129 -2.3417,-10.966 2.6186,-24.849 9.1692,-39.363 -11.075,9.2259 -18.387,22.082 -20.063,37.399 -28.142,-41.768 -64.174,-69.017 -107.07,-65.115 -3.8322,0.34468 -7.6833,0.92288 -11.624,1.7871 16.438,0.48738 28.367,7.3631 41.449,27.265 0.0441,0.0223 0.101,0.0623 0.1451,0.0846 -0.0441,-0.0223 -0.101,-0.0623 -0.1451,-0.0846 -33.43,-18.78 -55.964,-23.938 -85.227,-21.557 -6.9364,0.56118 -14.25,1.539 -22.182,2.866 43.476,5.8729 71.791,29.037 88.586,63.086 l 0.7758,1.4939 18.367,19.182 c 2.4192,-0.69629 4.8254,-1.4103 7.2492,-2.1374 z"
           style="fill:url(#g)"
           inkscape:connector-curvature="0" />
      </g>
    </g>
    <g
       id="g3409">
      <text
         id="text1331"
         y="173.41748"
         x="210.53535"
         style="font-style:normal;font-weight:normal;font-size:10.58333302px;line-height:7.05555534px;font-family:sans-serif;letter-spacing:0px;word-spacing:0px;fill:#ffffff;fill-opacity:1;stroke:none;stroke-width:0.26458332"
         xml:space="preserve"><tspan
           style="font-size:6.3499999px;text-align:center;text-anchor:middle;fill:#ffffff;stroke-width:0.26458332"
           y="173.41748"
           x="210.53535"
           sodipodi:role="line"
           id="tspan1329">Code à</tspan><tspan
           id="tspan1335"
           style="font-size:6.3499999px;text-align:center;text-anchor:middle;fill:#ffffff;stroke-width:0.26458332"
           y="181.57271"
           x="210.53535"
           sodipodi:role="line">exécuter</tspan></text>
      <g
         id="g3438"
         transform="matrix(0.06193661,0,0,-0.06193661,192.8697,185.56358)">
        <g
           id="g3440">
          <g
             id="g3442"
             clip-path="url(#clipPath3444)">
            <g
               id="g3448">
              <g
                 id="g3450">
                <path
                   style="fill:url(#radialGradient3452)"
                   inkscape:connector-curvature="0"
                   id="path3462"
                   d="M 11.52,162 C 11.52,81.677 135.307,16.56 288,16.56 440.693,16.56 564.48,81.678 564.48,162 564.48,242.322 440.693,307.44 288,307.44 135.307,307.44 11.52,242.32 11.52,162" />
              </g>
            </g>
          </g>
        </g>
        <g
           id="g3464">
          <g
             id="g3466"
             clip-path="url(#clipPath3468)">
            <g
               id="g3472"
               transform="translate(288,27.36)">
              <path
                 style="fill:#777bb3"
                 inkscape:connector-curvature="0"
                 id="path3474"
                 d="M 0,0 C 146.73,0 265.68,60.28 265.68,134.64 265.68,209 146.73,269.283 0,269.283 c -146.73,0 -265.68,-60.282 -265.68,-134.64 C -265.68,60.28 -146.73,0 0,0" />
            </g>
          </g>
        </g>
        <g
           id="g3476">
          <g
             id="g3478"
             clip-path="url(#clipPath3480)">
            <g
               id="g3484"
               transform="translate(161.73,145.31)">
              <path
                 inkscape:connector-curvature="0"
                 id="path3486"
                 d="m 0,0 c 12.065,0 21.072,2.225 26.77,6.61 5.64,4.342 9.533,11.863 11.574,22.354 1.903,9.806 1.178,16.653 -2.154,20.348 C 32.783,53.086 25.417,55 14.297,55 H -4.983 L -15.673,0 Z m -63.063,-67.75 c -0.895,0 -1.745,0.4 -2.314,1.092 -0.57,0.69 -0.8,1.6 -0.63,2.48 l 28.328,145.75 c 0.28,1.41 1.51,2.428 2.95,2.428 h 61.05 c 19.19,0 33.47,-5.21 42.45,-15.487 9.03,-10.33 11.81,-24.772 8.288,-42.92 -1.435,-7.395 -3.905,-14.262 -7.34,-20.41 -3.44,-6.155 -7.984,-11.85 -13.51,-16.93 C 49.58,-17.94 42.098,-22.43 33.96,-25.07 25.96,-27.68 15.682,-29 3.414,-29 h -24.722 l -7.06,-36.322 c -0.274,-1.41 -1.508,-2.428 -2.944,-2.428 h -31.75 z" />
            </g>
            <g
               id="g3488"
               transform="translate(159.22,197.31)">
              <path
                 style="fill:#ffffff"
                 inkscape:connector-curvature="0"
                 id="path3490"
                 d="m 0,0 h 16.808 c 13.42,0 18.083,-2.945 19.667,-4.7 2.628,-2.914 3.124,-9.058 1.435,-17.767 C 36.012,-32.217 32.494,-39.13 27.452,-43.012 22.29,-46.986 13.898,-49 2.512,-49 H -9.524 Z m 28.83,35 h -61.054 c -2.872,0 -5.34,-2.036 -5.89,-4.855 l -28.327,-145.75 c -0.35,-1.76 0.12,-3.58 1.25,-4.962 1.14,-1.383 2.84,-2.183 4.63,-2.183 h 31.75 c 2.87,0 5.34,2.036 5.89,4.855 L -16.33,-84 H 5.92 c 12.58,0 23.177,1.372 31.48,4.077 8.54,2.775 16.4,7.48 23.356,13.984 5.75,5.3 10.49,11.24 14.08,17.66 3.59,6.42 6.17,13.6 7.667,21.3 3.715,19.11 0.697,34.41 -8.97,45.47 C 63.967,29.45 48.925,35 28.833,35 M -16.8,-55 H 2.51 c 12.802,0 22.337,2.41 28.602,7.234 6.266,4.824 10.492,12.876 12.688,24.156 2.1,10.833 1.144,18.477 -2.87,22.93 C 36.91,3.773 28.87,6 16.807,6 H -4.946 L -16.802,-55 M 28.83,29 c 18.368,0 31.767,-4.82 40.19,-14.46 8.42,-9.642 10.956,-23.1 7.596,-40.376 -1.383,-7.117 -3.722,-13.624 -7.015,-19.52 -3.29,-5.898 -7.6,-11.292 -12.92,-16.184 -6.34,-5.93 -13.38,-10.16 -21.13,-12.673 C 27.8,-76.743 17.93,-78 5.93,-78 h -27.2 l -7.532,-38.75 h -31.75 L -32.224,29 H 28.83" />
            </g>
            <g
               id="g3492"
               transform="translate(311.58,116.31)">
              <path
                 inkscape:connector-curvature="0"
                 id="path3494"
                 d="m 0,0 c -0.896,0 -1.745,0.4 -2.314,1.092 -0.57,0.69 -0.802,1.6 -0.63,2.48 l 12.53,64.49 C 10.778,74.194 10.484,78.596 8.759,80.456 7.7,81.593 4.53,83.5 -4.85,83.5 h -22.7 L -43.305,2.428 C -43.58,1.018 -44.815,0 -46.25,0 h -31.5 c -0.896,0 -1.745,0.4 -2.315,1.092 -0.57,0.69 -0.8,1.6 -0.63,2.48 l 28.328,145.75 c 0.274,1.41 1.51,2.428 2.945,2.428 h 31.5 c 0.896,0 1.745,-0.4 2.315,-1.09 0.57,-0.693 0.8,-1.602 0.63,-2.482 L -21.813,113 H 2.61 c 18.604,0 31.22,-3.28 38.568,-10.028 7.49,-6.884 9.827,-17.89 6.947,-32.72 L 34.945,2.43 C 34.67,1.018 33.437,0 32,0 Z" />
            </g>
            <g
               id="g3496"
               transform="translate(293.66,271.06)">
              <path
                 style="fill:#ffffff"
                 inkscape:connector-curvature="0"
                 id="path3498"
                 d="m 0,0 h -31.5 c -2.873,0 -5.342,-2.036 -5.89,-4.855 l -28.328,-145.75 c -0.342,-1.76 0.12,-3.58 1.26,-4.962 1.14,-1.383 2.838,-2.183 4.63,-2.183 h 31.5 c 2.872,0 5.342,2.036 5.89,4.855 l 15.283,78.645 h 20.23 c 9.362,0 11.327,-2 11.406,-2.086 0.57,-0.61 1.32,-3.44 0.09,-9.78 l -12.53,-64.49 c -0.34,-1.76 0.12,-3.578 1.26,-4.96 1.14,-1.384 2.84,-2.184 4.63,-2.184 h 32 c 2.87,0 5.34,2.036 5.89,4.855 L 68.99,-85.07 c 3.094,15.92 0.448,27.864 -7.86,35.5 -7.928,7.28 -21.208,10.82 -40.6,10.82 H -0.252 L 5.89,-7.145 c 0.34,1.76 -0.12,3.58 -1.26,4.96 C 3.49,-0.8 1.792,0 0,0 m 0,-6 -7.53,-38.75 h 28.06 c 17.658,0 29.837,-3.082 36.54,-9.238 6.703,-6.16 8.71,-16.14 6.032,-29.938 l -13.18,-67.824 h -32 l 12.53,64.488 c 1.427,7.336 0.903,12.34 -1.573,15.008 -2.48,2.668 -7.75,4.004 -15.81,4.004 h -25.18 l -16.23,-83.5 h -31.5 L -31.5,-6 H 0" />
            </g>
            <g
               id="g3500"
               transform="translate(409.55,145.31)">
              <path
                 inkscape:connector-curvature="0"
                 id="path3502"
                 d="m 0,0 c 12.065,0 21.072,2.225 26.77,6.61 5.64,4.34 9.533,11.862 11.575,22.354 1.903,9.806 1.178,16.653 -2.155,20.348 C 32.783,53.086 25.417,55 14.297,55 H -4.983 L -15.673,0 Z m -63.062,-67.75 c -0.895,0 -1.745,0.4 -2.314,1.092 -0.57,0.69 -0.802,1.6 -0.63,2.48 l 28.327,145.75 c 0.28,1.41 1.51,2.428 2.95,2.428 h 61.05 c 19.19,0 33.47,-5.21 42.45,-15.487 9.03,-10.33 11.81,-24.77 8.29,-42.92 -1.434,-7.395 -3.903,-14.262 -7.34,-20.41 -3.44,-6.155 -7.982,-11.85 -13.51,-16.93 C 49.58,-17.94 42.098,-22.43 33.96,-25.07 25.96,-27.68 15.682,-29 3.414,-29 H -21.31 l -7.056,-36.322 c -0.275,-1.41 -1.51,-2.428 -2.946,-2.428 z" />
            </g>
            <g
               id="g3504"
               transform="translate(407.04,197.31)">
              <path
                 style="fill:#ffffff"
                 inkscape:connector-curvature="0"
                 id="path3506"
                 d="m 0,0 h 16.808 c 13.42,0 18.083,-2.945 19.667,-4.7 2.63,-2.914 3.125,-9.058 1.435,-17.766 C 36.012,-32.216 32.493,-39.13 27.452,-43.012 22.29,-46.986 13.898,-49 2.512,-49 H -9.523 Z m 28.83,35 h -61.053 c -2.872,0 -5.34,-2.036 -5.89,-4.855 l -28.327,-145.75 c -0.342,-1.76 0.12,-3.58 1.26,-4.962 1.14,-1.383 2.837,-2.183 4.63,-2.183 h 31.75 c 2.87,0 5.34,2.036 5.89,4.855 L -16.325,-84 h 22.25 c 12.58,0 23.173,1.372 31.478,4.077 8.54,2.775 16.4,7.48 23.356,13.986 5.75,5.29 10.48,11.23 14.07,17.655 C 78.42,-41.855 81,-34.688 82.5,-26.98 86.215,-7.875 83.197,7.423 73.53,18.487 63.967,29.444 48.922,35 28.832,35 M -16.8,-55 H 2.51 c 12.802,0 22.337,2.41 28.602,7.234 6.268,4.824 10.492,12.876 12.688,24.156 2.102,10.833 1.145,18.477 -2.87,22.93 C 36.91,3.773 28.87,6 16.807,6 H -4.946 L -16.8,-55 m 45.63,84 c 18.368,0 31.767,-4.82 40.19,-14.46 8.42,-9.642 10.956,-23.1 7.596,-40.376 -1.383,-7.117 -3.722,-13.624 -7.015,-19.52 -3.29,-5.898 -7.6,-11.292 -12.92,-16.184 -6.34,-5.93 -13.38,-10.16 -21.13,-12.673 C 27.8,-76.743 17.93,-78 5.93,-78 h -27.2 l -7.53,-38.75 H -60.55 L -32.224,29 H 28.83" />
            </g>
          </g>
        </g>
      </g>
    </g>
    <g
       id="g3380"
       transform="matrix(0.08570179,0,0,0.08570179,206.03843,239.13499)">
      <g
         id="g3326"
         style="fill:#00618a;fill-rule:nonzero;stroke:none;stroke-width:0.87088001;stroke-linecap:butt;stroke-linejoin:miter;stroke-dasharray:none"
         transform="translate(0.738281,121.593)">
        <path
           id="path3324"
           d="m 0,62.235 c 0,0 12.8418,0 12.8418,0 0,0 0,-50.711 0,-50.711 0,0 19.8808,44.208 19.8808,44.208 2.3457,5.351 5.5567,7.244 11.8536,7.244 6.2978,0 9.3847,-1.893 11.7314,-7.244 0,0 19.8799,-44.208 19.8799,-44.208 0,0 0,50.711 0,50.711 0,0 12.8428,0 12.8428,0 0,0 0,-50.628 0,-50.628 0,-4.939 -1.9766,-7.327 -6.0508,-8.561 C 73.2246,0 66.6797,2.634 63.7158,9.22 c 0,0 -19.5098,43.63 -19.5098,43.63 0,0 -18.8925,-43.63 -18.8925,-43.63 C 22.4736,2.634 15.8056,0 6.05078,3.046 1.97559,4.28 0,6.668 0,11.607 c 0,0 0,50.628 0,50.628 z"
           inkscape:connector-curvature="0" />
      </g>
      <g
         id="g3330"
         style="fill:#00618a;fill-rule:nonzero;stroke:none;stroke-width:0.87088001;stroke-linecap:butt;stroke-linejoin:miter;stroke-dasharray:none"
         transform="translate(100.444,142.416)">
        <path
           id="path3328"
           d="m 0.002,0.136 c 0,0 12.838,0 12.838,0 0,0 0,27.938 0,27.938 -0.12,1.518 0.487,5.08 7.522,5.191 3.589,0.056 27.7,0 27.925,0 0,0 0,-33.265 0,-33.265 0,0 12.868,0 12.868,0 0.059,0 -0.013,45.364 -0.012,45.557 0.071,11.188 -13.882,13.618 -20.313,13.806 0,0 -40.549,0 -40.549,0 0,0 0,-8.639 0,-8.639 0.071,0 40.519,0.008 40.621,-0.002 8.265,-0.873 7.289,-4.981 7.288,-6.364 0,0 0,-3.368 0,-3.368 0,0 -27.295,0 -27.295,0 C 8.196,40.873 0.109,35.331 0.009,28.955 0,28.364 0.283,0.415 0.002,0.136 Z"
           inkscape:connector-curvature="0" />
      </g>
      <g
         id="g3334"
         style="fill:#e48e00;fill-rule:nonzero;stroke:none;stroke-width:0.87088001;stroke-linecap:butt;stroke-linejoin:miter;stroke-dasharray:none"
         transform="translate(171.496,124.557)">
        <path
           id="path3332"
           d="m 0,59.271 c 0,0 36.92,0 36.92,0 4.322,0 8.521,-0.905 11.855,-2.47 5.556,-2.551 8.273,-6.008 8.273,-10.537 0,0 0,-9.384 0,-9.384 0,-3.705 -3.087,-7.163 -9.138,-9.467 -3.211,-1.236 -7.162,-1.894 -10.99,-1.894 0,0 -15.559,0 -15.559,0 -5.185,0 -7.655,-1.564 -8.272,-5.021 -0.124,-0.412 -0.124,-0.742 -0.124,-1.153 0,0 0,-5.844 0,-5.844 0,-0.33 0,-0.66 0.124,-1.071 0.617,-2.634 1.976,-3.376 6.544,-3.787 0.371,0 0.864,-0.083 1.235,-0.083 0,0 36.674,0 36.674,0 0,0 0,-8.56 0,-8.56 0,0 -36.057,0 -36.057,0 C 16.299,0 13.582,0.329 11.113,1.069 3.457,3.457 0.123,7.244 0.123,13.83 c 0,0 0,7.491 0,7.491 0,5.763 6.545,10.702 17.534,11.854 1.236,0.082 2.47,0.164 3.704,0.164 0,0 13.336,0 13.336,0 0.495,0 0.989,0 1.359,0.083 4.075,0.33 5.803,1.07 7.039,2.552 0.74,0.74 0.987,1.482 0.987,2.305 0,0 0,7.491 0,7.491 0,0.906 -0.617,2.059 -1.851,3.046 -1.112,0.988 -2.964,1.647 -5.434,1.812 -0.494,0 -0.864,0.082 -1.358,0.082 0,0 -35.439,0 -35.439,0 0,0 0,8.561 0,8.561 z"
           inkscape:connector-curvature="0" />
      </g>
      <g
         id="g3338"
         style="fill:#e48e00;fill-rule:nonzero;stroke:none;stroke-width:0.87088001;stroke-linecap:butt;stroke-linejoin:miter;stroke-dasharray:none"
         transform="translate(308.656,124.557)">
        <path
           id="path3336"
           d="m 0,44.371 c 0,8.808 6.544,13.748 19.757,14.736 1.234,0.082 2.47,0.164 3.704,0.164 0,0 33.464,0 33.464,0 0,0 0,-8.561 0,-8.561 0,0 -33.711,0 -33.711,0 -7.532,0 -10.372,-1.894 -10.372,-6.421 0,0 0,-44.289 0,-44.289 C 12.842,0 0,0 0,0 0,0 0,44.371 0,44.371 Z"
           inkscape:connector-curvature="0" />
      </g>
      <g
         id="g3342"
         style="fill:#e48e00;fill-rule:nonzero;stroke:none;stroke-width:0.87088001;stroke-linecap:butt;stroke-linejoin:miter;stroke-dasharray:none"
         transform="translate(236.74,124.666)">
        <path
           id="path3340"
           d="m 0,44.711 c 0,0 0,-30.522 0,-30.522 C 0,6.435 5.445,1.732 16.209,0.247 17.323,0.083 18.561,0 19.674,0 c 0,0 24.376,0 24.376,0 1.237,0 2.352,0.083 3.589,0.247 10.765,1.485 16.209,6.188 16.209,13.942 0,0 0,30.522 0,30.522 0,6.291 -2.312,9.658 -7.641,11.852 0,0 12.65,11.418 12.65,11.418 0,0 -14.911,0 -14.911,0 0,0 -10.234,-9.238 -10.234,-9.238 0,0 -10.303,0.653 -10.303,0.653 0,0 -13.735,0 -13.735,0 -2.351,0 -4.825,-0.331 -7.548,-1.073 C 3.96,56.096 0,51.806 0,44.711 Z m 13.861,-0.742 c 0,0.413 0.123,0.825 0.247,1.32 0.742,3.547 4.083,5.527 9.156,5.527 0,0 11.667,0 11.667,0 0,0 -10.717,-9.675 -10.717,-9.675 0,0 14.911,0 14.911,0 0,0 9.347,8.438 9.347,8.438 1.722,-0.918 2.856,-2.322 3.252,-4.125 0.123,-0.412 0.123,-0.825 0.123,-1.237 0,0 0,-29.285 0,-29.285 0,-0.33 0,-0.743 -0.123,-1.156 C 50.981,10.477 47.64,8.58 42.691,8.58 c 0,0 -19.427,0 -19.427,0 -5.691,0 -9.403,2.475 -9.403,6.352 0,0 0,29.037 0,29.037 z"
           inkscape:connector-curvature="0" />
      </g>
      <g
         id="g3346"
         style="fill:#00618a;fill-rule:nonzero;stroke:none;stroke-width:0.87088001;stroke-linecap:butt;stroke-linejoin:miter;stroke-dasharray:none"
         transform="translate(241.59,-4.64258)">
        <path
           id="path3344"
           d="m 135.289,114.997 c -7.894,-0.214 -13.924,0.52 -19.079,2.694 -1.465,0.618 -3.801,0.634 -4.04,2.47 0.805,0.844 0.93,2.104 1.57,3.142 1.231,1.992 3.309,4.661 5.163,6.061 2.026,1.529 4.114,3.165 6.286,4.489 3.863,2.356 8.176,3.701 11.896,6.061 2.192,1.391 4.37,3.143 6.509,4.713 1.057,0.776 1.768,1.983 3.142,2.469 0,-0.074 0,-0.149 0,-0.224 -0.722,-0.919 -0.908,-2.183 -1.571,-3.143 -0.972,-0.972 -1.945,-1.945 -2.918,-2.918 -2.853,-3.787 -6.475,-7.113 -10.325,-9.876 -3.07,-2.204 -9.942,-5.181 -11.223,-8.754 -0.075,-0.075 -0.149,-0.15 -0.225,-0.225 2.177,-0.245 4.726,-1.033 6.735,-1.571 3.375,-0.905 6.391,-0.671 9.876,-1.571 1.571,-0.449 3.142,-0.899 4.714,-1.347 0,-0.3 0,-0.598 0,-0.898 -1.762,-1.808 -3.018,-4.2 -4.939,-5.836 -5.026,-4.28 -10.512,-8.556 -16.161,-12.1216 -3.133,-1.9776 -7.005,-3.2627 -10.325,-4.9385 -1.117,-0.5635 -3.079,-0.8565 -3.817,-1.7959 -1.744,-2.2237 -2.694,-5.042 -4.039,-7.6319 C 99.7,78.8194 96.933,72.8936 94.437,67.1856 92.734,63.293 91.622,59.4541 89.499,55.9619 79.307,39.2051 68.336,29.0908 51.341,19.1494 47.725,17.0352 43.371,16.2002 38.77,15.1094 36.302,14.96 33.832,14.8096 31.363,14.6602 29.856,14.0303 28.288,12.1865 26.874,11.293 21.244,7.73633 6.803,0 2.633,10.1709 0,16.5908 6.568,22.8555 8.917,26.1084 c 1.649,2.2822 3.76,4.8408 4.938,7.4072 0.775,1.6866 0.909,3.378 1.572,5.1631 1.632,4.3965 3.051,9.1797 5.162,13.2432 1.067,2.0557 2.243,4.2217 3.592,6.0605 0.827,1.128 2.244,1.625 2.468,3.3672 -1.386,1.9395 -1.465,4.9502 -2.244,7.4073 -3.508,11.0615 -2.185,24.8105 2.918,32.9971 1.566,2.513 5.254,7.903 10.325,5.836 4.436,-1.807 3.445,-7.406 4.714,-12.3458 0.287,-1.1202 0.111,-1.9434 0.673,-2.6934 0,0.0742 0,0.1494 0,0.2246 1.347,2.6934 2.694,5.3867 4.041,8.0796 2.99,4.816 8.297,9.849 12.794,13.245 2.332,1.761 4.168,4.806 7.183,5.836 0,-0.075 0,-0.149 0,-0.225 -0.076,0 -0.15,0 -0.225,0 -0.584,-0.911 -1.498,-1.288 -2.244,-2.02 -1.757,-1.722 -3.71,-3.863 -5.163,-5.836 -4.09,-5.553 -7.705,-11.631 -10.998,-17.9575 -1.573,-3.0205 -2.94,-6.3535 -4.266,-9.4278 -0.511,-1.1855 -0.505,-2.9775 -1.57,-3.5917 -1.452,2.2529 -3.591,4.0742 -4.714,6.7343 -1.796,4.252 -2.028,9.4375 -2.693,14.8147 -0.394,0.141 -0.219,0.044 -0.45,0.224 -3.126,-0.754 -4.225,-3.9723 -5.386,-6.733 -2.939,-6.9824 -3.485,-18.2256 -0.899,-26.2627 0.669,-2.0791 3.693,-8.6289 2.469,-10.5498 -0.584,-1.917 -2.512,-3.0254 -3.591,-4.4902 -1.335,-1.8106 -2.668,-4.1944 -3.592,-6.2852 -2.405,-5.4443 -3.528,-11.5557 -6.06,-17.0586 -1.21,-2.6309 -3.257,-5.293 -4.938,-7.6318 C 10.872,21.0489 8.788,19.1406 7.346,16.0069 6.833,14.8936 6.136,13.1113 6.897,11.9668 7.139,11.1943 7.48,10.8721 8.244,10.6201 c 1.302,-1.00389 4.928,0.334 6.284,0.8975 3.6,1.4951 6.604,2.9189 9.653,4.9385 1.464,0.9707 2.944,2.8476 4.713,3.3672 0.673,0 1.347,0 2.02,0 3.16,0.7265 6.7,0.2256 9.652,1.122 5.218,1.586 9.894,4.0528 14.141,6.7344 12.938,8.169 23.516,19.7979 30.752,33.6699 1.164,2.2334 1.668,4.3653 2.693,6.7344 2.069,4.7774 4.675,9.6934 6.733,14.3652 2.054,4.6612 4.056,9.3653 6.959,13.2442 1.527,2.039 7.422,3.1328 10.101,4.2646 1.878,0.794 4.955,1.621 6.734,2.693 3.398,2.05 6.69,4.49 9.877,6.735 1.593,1.122 6.489,3.583 6.733,5.611 z"
           inkscape:connector-curvature="0" />
      </g>
      <g
         id="g3350"
         style="fill:#00618a;fill-rule:evenodd;stroke:none;stroke-width:0.87088001;stroke-linecap:butt;stroke-linejoin:miter;stroke-dasharray:none"
         transform="translate(272.504,24.8027)">
        <path
           id="path3348"
           d="M 4.041,0.0303 C 2.395,0 1.231,0.21 0,0.4786 c 0,0.0751 0,0.1503 0,0.2246 0.075,0 0.15,0 0.225,0 C 1.01,2.3164 2.396,3.3545 3.367,4.7442 4.115,6.3155 4.863,7.8868 5.612,9.4571 5.686,9.3828 5.762,9.3077 5.836,9.2334 7.226,8.2539 7.863,6.6866 7.856,4.295 7.299,3.709 7.217,2.9737 6.734,2.2744 6.092,1.3428 4.85,0.8135 4.041,0.0303 Z"
           inkscape:connector-curvature="0" />
      </g>
      <g
         id="g3354"
         style="fill:#e48e00;fill-rule:evenodd;stroke:none;stroke-width:1;stroke-linecap:butt;stroke-linejoin:miter;stroke-dasharray:none"
         transform="translate(371.609,165.56)">
        <path
           id="path3352"
           d="m 0,9.463 c 0,5.654 4.467,9.464 9.464,9.464 4.997,0 9.464,-3.81 9.464,-9.464 C 18.928,3.81 14.461,0 9.464,0 4.467,0 0,3.81 0,9.463 Z m 16.808,0 c 0,4.29 -3.28,7.496 -7.344,7.496 -4.113,0 -7.344,-3.206 -7.344,-7.496 0,-4.29 3.231,-7.496 7.344,-7.496 4.064,0 7.344,3.206 7.344,7.496 z m -4.794,5.401 c 0,0 2.119,0 2.119,0 0,0 -3.103,-4.744 -3.103,-4.744 1.665,-0.177 2.926,-0.985 2.926,-2.953 0,-2.196 -1.387,-3.104 -4.062,-3.104 0,0 -4.215,0 -4.215,0 0,0 0,10.801 0,10.801 0,0 1.817,0 1.817,0 0,0 0,-4.669 0,-4.669 0,0 1.691,0 1.691,0 0,0 2.827,4.669 2.827,4.669 z M 7.496,8.681 c 0,0 0,-3.104 0,-3.104 0,0 2.094,0 2.094,0 1.086,0 2.398,0.202 2.398,1.464 0,1.513 -1.186,1.64 -2.549,1.64 0,0 -1.943,0 -1.943,0 z"
           inkscape:connector-curvature="0" />
      </g>
    </g>
    <text
       xml:space="preserve"
       style="font-style:normal;font-weight:normal;font-size:10.58333302px;line-height:7.05555534px;font-family:sans-serif;letter-spacing:0px;word-spacing:0px;fill:#000000;fill-opacity:1;stroke:none;stroke-width:0.26458332"
       x="163.97733"
       y="194.34348"
       id="text970"><tspan
         sodipodi:role="line"
         id="tspan968"
         x="163.97733"
         y="194.34348"
         style="font-size:5.64444447px;text-align:center;text-anchor:middle;stroke-width:0.26458332">Apache</tspan></text>
  </g>
</svg>
